<svg xmlns="http://www.w3.org/2000/svg" viewBox="0 0 320 180" role="img" aria-labelledby="title desc">
  <title id="title">Katkova House</title>
  <desc id="desc">Katkova House project logo</desc>
  <defs>
    <linearGradient id="sky" x1="0" x2="1" y1="0" y2="1">
      <stop offset="0" stop-color="#38bdf8" />
      <stop offset="1" stop-color="#2563eb" />
    </linearGradient>
    <linearGradient id="sun" x1="0" x2="1" y1="0" y2="1">
      <stop offset="0" stop-color="#fde68a" />
      <stop offset="1" stop-color="#f59e0b" />
    </linearGradient>
  </defs>
  <rect width="320" height="180" rx="32" fill="#0f172a" />
  <circle cx="244" cy="52" r="30" fill="url(#sun)" />
  <path d="M48 112c34-34 58-34 92 0 31 31 58 32 92 0 15-15 29-23 44-24v50H48v-26Z" fill="url(#sky)" opacity="0.92" />
  <path d="M62 105 160 36l98 69v43H62v-43Z" fill="#f8fafc" />
  <path d="M160 36 52 112l-12-18 120-84 120 84-12 18L160 36Z" fill="#ef4444" />
  <path d="M128 148V96h64v52" fill="#1e293b" />
  <path d="M82 148h156" stroke="#e2e8f0" stroke-width="10" stroke-linecap="round" />
  <text x="160" y="168" text-anchor="middle" font-family="Inter, Arial, sans-serif" font-size="24" font-weight="800" fill="#f8fafc" letter-spacing="0.04em">KATKOVA HOUSE</text>
</svg>
